<svg width="18" height="18" viewBox="0 0 18 18" fill="none" xmlns="http://www.w3.org/2000/svg">
    <path d="M14.4868 13.2106C14.6453 13.3691 14.7344 13.5841 14.7344 13.8083C14.7344 14.0324 14.6453 14.2474 14.4868 14.4059C14.3283 14.5644 14.1133 14.6535 13.8892 14.6535C13.665 14.6535 13.45 14.5644 13.2915 14.4059L8.82736 9.94037L4.36182 14.4045C4.20331 14.563 3.98832 14.6521 3.76416 14.6521C3.53999 14.6521 3.32501 14.563 3.1665 14.4045C3.00799 14.246 2.91895 14.031 2.91895 13.8069C2.91895 13.5827 3.00799 13.3677 3.1665 13.2092L7.63205 8.74506L3.16791 4.27951C3.0094 4.121 2.92035 3.90602 2.92035 3.68185C2.92035 3.45769 3.0094 3.24271 3.16791 3.0842C3.32642 2.92569 3.5414 2.83664 3.76557 2.83664C3.98973 2.83664 4.20471 2.92569 4.36322 3.0842L8.82736 7.54974L13.2929 3.08349C13.4514 2.92499 13.6664 2.83594 13.8906 2.83594C14.1147 2.83594 14.3297 2.92499 14.4882 3.08349C14.6467 3.242 14.7358 3.45699 14.7358 3.68115C14.7358 3.90532 14.6467 4.1203 14.4882 4.27881L10.0227 8.74506L14.4868 13.2106Z" fill="#7C7C7C"/>
</svg>
