<svg width="138" height="24" viewBox="0 0 138 24" fill="none" xmlns="http://www.w3.org/2000/svg">
<path d="M1.37216 17L5.92614 7.99148V7.91193H0.676136V6.81818H7.19886V7.97159L2.66477 17H1.37216ZM12.1543 17.1392C11.4052 17.1392 10.7672 16.9354 10.2402 16.5277C9.71325 16.1167 9.31055 15.5218 9.03214 14.7429C8.75373 13.9607 8.61452 13.0161 8.61452 11.9091C8.61452 10.8087 8.75373 9.86908 9.03214 9.0902C9.31386 8.308 9.71822 7.71141 10.2452 7.30043C10.7755 6.88613 11.4119 6.67898 12.1543 6.67898C12.8967 6.67898 13.5314 6.88613 14.0584 7.30043C14.5887 7.71141 14.9931 8.308 15.2715 9.0902C15.5532 9.86908 15.6941 10.8087 15.6941 11.9091C15.6941 13.0161 15.5549 13.9607 15.2765 14.7429C14.998 15.5218 14.5953 16.1167 14.0684 16.5277C13.5414 16.9354 12.9033 17.1392 12.1543 17.1392ZM12.1543 16.0455C12.8967 16.0455 13.4734 15.6875 13.8844 14.9716C14.2954 14.2557 14.5009 13.2348 14.5009 11.9091C14.5009 11.0275 14.4064 10.2768 14.2175 9.65696C14.0319 9.03717 13.7634 8.56487 13.4121 8.24006C13.0641 7.91525 12.6448 7.75284 12.1543 7.75284C11.4185 7.75284 10.8435 8.11577 10.4292 8.84162C10.0149 9.56416 9.80771 10.5866 9.80771 11.9091C9.80771 12.7907 9.90051 13.5398 10.0861 14.1562C10.2717 14.7727 10.5385 15.2417 10.8865 15.5632C11.2379 15.8847 11.6605 16.0455 12.1543 16.0455ZM20.9043 17.1392C20.1552 17.1392 19.5172 16.9354 18.9902 16.5277C18.4632 16.1167 18.0605 15.5218 17.7821 14.7429C17.5037 13.9607 17.3645 13.0161 17.3645 11.9091C17.3645 10.8087 17.5037 9.86908 17.7821 9.0902C18.0639 8.308 18.4682 7.71141 18.9952 7.30043C19.5255 6.88613 20.1619 6.67898 20.9043 6.67898C21.6467 6.67898 22.2814 6.88613 22.8084 7.30043C23.3387 7.71141 23.7431 8.308 24.0215 9.0902C24.3032 9.86908 24.4441 10.8087 24.4441 11.9091C24.4441 13.0161 24.3049 13.9607 24.0265 14.7429C23.748 15.5218 23.3453 16.1167 22.8184 16.5277C22.2914 16.9354 21.6533 17.1392 20.9043 17.1392ZM20.9043 16.0455C21.6467 16.0455 22.2234 15.6875 22.6344 14.9716C23.0454 14.2557 23.2509 13.2348 23.2509 11.9091C23.2509 11.0275 23.1564 10.2768 22.9675 9.65696C22.7819 9.03717 22.5134 8.56487 22.1621 8.24006C21.8141 7.91525 21.3948 7.75284 20.9043 7.75284C20.1685 7.75284 19.5935 8.11577 19.1792 8.84162C18.7649 9.56416 18.5577 10.5866 18.5577 11.9091C18.5577 12.7907 18.6505 13.5398 18.8361 14.1562C19.0217 14.7727 19.2885 15.2417 19.6365 15.5632C19.9879 15.8847 20.4105 16.0455 20.9043 16.0455ZM30.4498 17V6.81818H31.6827V11.8693H31.802L36.3759 6.81818H37.9867L33.7111 11.4119L37.9867 17H36.4952L32.9554 12.267L31.6827 13.6989V17H30.4498ZM39.5826 17V6.81818H43.1422C43.8515 6.81818 44.4365 6.94081 44.8972 7.18608C45.3579 7.42803 45.7009 7.7545 45.9263 8.16548C46.1517 8.57315 46.2644 9.02557 46.2644 9.52273C46.2644 9.96023 46.1865 10.3215 46.0307 10.6065C45.8783 10.8916 45.6761 11.117 45.4242 11.2827C45.1756 11.4484 44.9055 11.571 44.6138 11.6506V11.75C44.9254 11.7699 45.2386 11.8793 45.5534 12.0781C45.8683 12.277 46.1318 12.562 46.3439 12.9332C46.556 13.3045 46.6621 13.7585 46.6621 14.2955C46.6621 14.8059 46.5461 15.2649 46.3141 15.6726C46.0821 16.0803 45.7159 16.4034 45.2154 16.642C44.7149 16.8807 44.0636 17 43.2615 17H39.5826ZM40.8155 15.9062H43.2615C44.0669 15.9062 44.6387 15.7505 44.9767 15.4389C45.3181 15.1241 45.4888 14.7429 45.4888 14.2955C45.4888 13.9508 45.401 13.6326 45.2253 13.3409C45.0497 13.0459 44.7994 12.8106 44.4746 12.6349C44.1498 12.456 43.7653 12.3665 43.3212 12.3665H40.8155V15.9062ZM40.8155 11.2926H43.1025C43.4737 11.2926 43.8084 11.2197 44.1067 11.0739C44.4083 10.928 44.647 10.7225 44.8226 10.4574C45.0016 10.1922 45.0911 9.88068 45.0911 9.52273C45.0911 9.07528 44.9353 8.69579 44.6238 8.38423C44.3122 8.06937 43.8184 7.91193 43.1422 7.91193H40.8155V11.2926Z" fill="#7C7C7C"/>
<path d="M91.25 3H76.25C75.6533 3 75.081 3.23705 74.659 3.65901C74.2371 4.08097 74 4.65326 74 5.25V15.75C74 16.3467 74.2371 16.919 74.659 17.341C75.081 17.7629 75.6533 18 76.25 18H83V19.5H80.75C80.5511 19.5 80.3603 19.579 80.2197 19.7197C80.079 19.8603 80 20.0511 80 20.25C80 20.4489 80.079 20.6397 80.2197 20.7803C80.3603 20.921 80.5511 21 80.75 21H86.75C86.9489 21 87.1397 20.921 87.2803 20.7803C87.421 20.6397 87.5 20.4489 87.5 20.25C87.5 20.0511 87.421 19.8603 87.2803 19.7197C87.1397 19.579 86.9489 19.5 86.75 19.5H84.5V18H91.25C91.8467 18 92.419 17.7629 92.841 17.341C93.2629 16.919 93.5 16.3467 93.5 15.75V5.25C93.5 4.65326 93.2629 4.08097 92.841 3.65901C92.419 3.23705 91.8467 3 91.25 3ZM76.25 4.5H91.25C91.4489 4.5 91.6397 4.57902 91.7803 4.71967C91.921 4.86032 92 5.05109 92 5.25V12.75H75.5V5.25C75.5 5.05109 75.579 4.86032 75.7197 4.71967C75.8603 4.57902 76.0511 4.5 76.25 4.5ZM91.25 16.5H76.25C76.0511 16.5 75.8603 16.421 75.7197 16.2803C75.579 16.1397 75.5 15.9489 75.5 15.75V14.25H92V15.75C92 15.9489 91.921 16.1397 91.7803 16.2803C91.6397 16.421 91.4489 16.5 91.25 16.5Z" fill="#B0B0B0"/>
<path d="M134.487 16.2106C134.645 16.3691 134.734 16.5841 134.734 16.8083C134.734 17.0324 134.645 17.2474 134.487 17.4059C134.328 17.5644 134.113 17.6535 133.889 17.6535C133.665 17.6535 133.45 17.5644 133.292 17.4059L128.827 12.9404L124.362 17.4045C124.203 17.563 123.988 17.6521 123.764 17.6521C123.54 17.6521 123.325 17.563 123.167 17.4045C123.008 17.246 122.919 17.031 122.919 16.8069C122.919 16.5827 123.008 16.3677 123.167 16.2092L127.632 11.7451L123.168 7.27951C123.009 7.121 122.92 6.90602 122.92 6.68185C122.92 6.45769 123.009 6.24271 123.168 6.0842C123.326 5.92569 123.541 5.83664 123.766 5.83664C123.99 5.83664 124.205 5.92569 124.363 6.0842L128.827 10.5497L133.293 6.08349C133.451 5.92499 133.666 5.83594 133.891 5.83594C134.115 5.83594 134.33 5.92499 134.488 6.08349C134.647 6.242 134.736 6.45699 134.736 6.68115C134.736 6.90532 134.647 7.1203 134.488 7.27881L130.023 11.7451L134.487 16.2106Z" fill="#7C7C7C"/>
</svg>
