<svg width="28" height="20" viewBox="0 0 28 20" fill="none" xmlns="http://www.w3.org/2000/svg">
    <rect x="0.25" y="0.25" width="27.5" height="19.5" rx="1.75" fill="white" stroke="#F5F5F5" stroke-width="0.5"/>
    <mask id="mask0_2055_472" style="mask-type:luminance" maskUnits="userSpaceOnUse" x="0" y="0" width="28" height="20">
    <rect x="0.25" y="0.25" width="27.5" height="19.5" rx="1.75" fill="white" stroke="white" stroke-width="0.5"/>
    </mask>
    <g mask="url(#mask0_2055_472)">
    <path fill-rule="evenodd" clip-rule="evenodd" d="M20.0002 3.33329C20.3633 3.15174 20.7318 3.56919 20.5066 3.90697L20.0674 4.56576C20.023 4.63234 19.9659 4.68948 19.8993 4.73387L18.0551 5.96334C18.0186 5.98769 17.9845 6.01559 17.9535 6.04664L17.8049 6.19522C17.5446 6.45557 17.5446 6.87768 17.8049 7.13803L18.1954 7.52855C18.4558 7.7889 18.4558 8.21101 18.1954 8.47136L17.6733 8.99352C17.4704 9.19643 17.1604 9.24673 16.9037 9.1184L16.5964 8.96477C16.2671 8.80011 15.8667 8.93359 15.702 9.26291L15.457 9.75297C15.3779 9.91111 15.2393 10.0314 15.0715 10.0873L13.4361 10.6324C13.3682 10.6551 13.297 10.6666 13.2253 10.6666H12.4122C12.1597 10.6666 11.9288 10.8093 11.8159 11.0352L11.6316 11.4037C11.467 11.733 11.0665 11.8665 10.7372 11.7018L8.76359 10.715C8.6995 10.683 8.641 10.6408 8.59033 10.5901L7.52876 9.52855C7.40373 9.40353 7.3335 9.23396 7.3335 9.05715V8.47136C7.3335 8.21101 7.54455 7.99996 7.8049 7.99996V7.99996C7.92992 7.99996 8.04983 7.95029 8.13823 7.86189L9.13823 6.86189C9.26326 6.73686 9.43283 6.66663 9.60964 6.66663H10.1863C10.4733 6.66663 10.728 6.48301 10.8188 6.21078L11.1474 5.22495C11.2537 4.90598 11.5809 4.71611 11.9106 4.78204L14.5198 5.30389C14.6166 5.32325 14.7165 5.32087 14.8123 5.29693L17.2625 4.68438C17.3097 4.67258 17.3554 4.65565 17.399 4.6339L18.6668 3.99996L20.0002 3.33329V3.33329Z" fill="#E7832C"/>
    <path fill-rule="evenodd" clip-rule="evenodd" d="M14.0002 16C14.3684 16 14.6668 15.7015 14.6668 15.3333C14.6668 14.9651 14.3684 14.6666 14.0002 14.6666C13.632 14.6666 13.3335 14.9651 13.3335 15.3333C13.3335 15.7015 13.632 16 14.0002 16Z" fill="#445128"/>
    <path opacity="0.75" d="M16 14.6666C16 14.6666 18 14 18.6667 12.6666" stroke="#445128" stroke-width="1.33333" stroke-linecap="round"/>
    <path opacity="0.75" d="M12 14.6666C12 14.6666 10 14 9.33333 12.6666" stroke="#445128" stroke-width="1.33333" stroke-linecap="round"/>
    </g>
</svg>
    