<svg width="28" height="21" viewBox="0 0 28 21" fill="none" xmlns="http://www.w3.org/2000/svg">
    <rect x="0.25" y="0.25" width="27.5" height="19.5" rx="1.75" fill="white" stroke="#F5F5F5" stroke-width="0.5"/>
    <mask id="mask0_24_363" style="mask-type:luminance" maskUnits="userSpaceOnUse" x="0" y="0" width="28" height="20">
    <rect x="0.25" y="0.25" width="27.5" height="19.5" rx="1.75" fill="white" stroke="white" stroke-width="0.5"/>
    </mask>
    <g mask="url(#mask0_24_363)">
    <rect x="18.6665" width="9.33333" height="20" fill="#E43D4C"/>
    <path fill-rule="evenodd" clip-rule="evenodd" d="M0 20H9.33333V0H0V20Z" fill="#1BB65D"/>
    </g>
    <rect x="0.25" y="1.25" width="27.5" height="19.5" rx="1.75" fill="white" stroke="#F5F5F5" stroke-width="0.5"/>
    <mask id="mask1_24_363" style="mask-type:luminance" maskUnits="userSpaceOnUse" x="0" y="1" width="28" height="20">
    <rect x="0.25" y="1.25" width="27.5" height="19.5" rx="1.75" fill="white" stroke="white" stroke-width="0.5"/>
    </mask>
    <g mask="url(#mask1_24_363)">
    <rect x="18.6665" y="1" width="9.33333" height="20" fill="#E43D4C"/>
    <path fill-rule="evenodd" clip-rule="evenodd" d="M0 21H9.33333V1H0V21Z" fill="#1BB65D"/>
    </g>
    <rect x="0.25" y="1.25" width="27.5" height="19.5" rx="1.75" fill="white" stroke="#F5F5F5" stroke-width="0.5"/>
    <mask id="mask2_24_363" style="mask-type:luminance" maskUnits="userSpaceOnUse" x="0" y="1" width="28" height="20">
    <rect x="0.25" y="1.25" width="27.5" height="19.5" rx="1.75" fill="white" stroke="white" stroke-width="0.5"/>
    </mask>
    <g mask="url(#mask2_24_363)">
    <rect x="18.6665" y="1" width="9.33333" height="20" fill="#E43D4C"/>
    <path fill-rule="evenodd" clip-rule="evenodd" d="M0 21H9.33333V1H0V21Z" fill="#1BB65D"/>
    </g>
</svg>
