<svg width="28" height="20" viewBox="0 0 28 20" fill="none" xmlns="http://www.w3.org/2000/svg">
    <rect x="0.25" y="0.25" width="27.5" height="19.5" rx="1.75" fill="white" stroke="#F5F5F5" stroke-width="0.5"/>
    <mask id="mask0_2055_444" style="mask-type:luminance" maskUnits="userSpaceOnUse" x="0" y="0" width="28" height="20">
    <rect x="0.25" y="0.25" width="27.5" height="19.5" rx="1.75" fill="white" stroke="white" stroke-width="0.5"/>
    </mask>
    <g mask="url(#mask0_2055_444)">
    <path fill-rule="evenodd" clip-rule="evenodd" d="M0 13.3333H28V6.66663H0V13.3333Z" fill="#0C47B7"/>
    <path fill-rule="evenodd" clip-rule="evenodd" d="M0 20H28V13.3334H0V20Z" fill="#E53B35"/>
    <path d="M13.0502 3.33333H6.94965C5.87499 3.33333 4.99243 4.1826 4.95113 5.25647L4.69188 11.9969C4.66841 12.6073 4.92509 13.1948 5.38882 13.5923L8.2645 16.0572C9.26314 16.9132 10.7368 16.9132 11.7354 16.0572L14.6111 13.5923C15.0748 13.1948 15.3315 12.6073 15.308 11.9969L15.0488 5.25647C15.0075 4.1826 14.1249 3.33333 13.0502 3.33333Z" fill="white" stroke="white" stroke-width="1.33333"/>
    <mask id="mask1_2055_444" style="mask-type:luminance" maskUnits="userSpaceOnUse" x="4" y="2" width="12" height="16">
    <path d="M13.0502 3.33333H6.94965C5.87499 3.33333 4.99243 4.1826 4.95113 5.25647L4.69188 11.9969C4.66841 12.6073 4.92509 13.1948 5.38882 13.5923L8.2645 16.0572C9.26314 16.9132 10.7368 16.9132 11.7354 16.0572L14.6111 13.5923C15.0748 13.1948 15.3315 12.6073 15.308 11.9969L15.0488 5.25647C15.0075 4.1826 14.1249 3.33333 13.0502 3.33333Z" fill="white" stroke="white" stroke-width="1.33333"/>
    </mask>
    <g mask="url(#mask1_2055_444)">
    <path fill-rule="evenodd" clip-rule="evenodd" d="M9.3335 11C9.3335 10.8159 9.18426 10.6667 9.00016 10.6667H7.66683C7.48273 10.6667 7.3335 10.5175 7.3335 10.3334V9.66671C7.3335 9.48261 7.48273 9.33337 7.66683 9.33337H9.00016C9.18426 9.33337 9.3335 9.18414 9.3335 9.00004V8.33337C9.3335 8.14928 9.18426 8.00004 9.00016 8.00004H8.3335C8.1494 8.00004 8.00016 7.8508 8.00016 7.66671V7.00004C8.00016 6.81595 8.1494 6.66671 8.3335 6.66671H9.00016C9.18426 6.66671 9.3335 6.51747 9.3335 6.33337V5.66671C9.3335 5.48261 9.48273 5.33337 9.66683 5.33337H10.3335C10.5176 5.33337 10.6668 5.48261 10.6668 5.66671V6.33337C10.6668 6.51747 10.8161 6.66671 11.0002 6.66671H11.6668C11.8509 6.66671 12.0002 6.81595 12.0002 7.00004V7.66671C12.0002 7.8508 11.8509 8.00004 11.6668 8.00004H11.0002C10.8161 8.00004 10.6668 8.14928 10.6668 8.33337V9.00004C10.6668 9.18414 10.8161 9.33337 11.0002 9.33337H12.3335C12.5176 9.33337 12.6668 9.48261 12.6668 9.66671V10.3334C12.6668 10.5175 12.5176 10.6667 12.3335 10.6667H11.0002C10.8161 10.6667 10.6668 10.8159 10.6668 11V13C10.6668 13.1841 10.5176 13.3334 10.3335 13.3334H9.66683C9.48273 13.3334 9.3335 13.1841 9.3335 13V11Z" fill="white"/>
    <path fill-rule="evenodd" clip-rule="evenodd" d="M11.2035 13.4254C10.9889 12.9766 10.5307 12.6666 10 12.6666C9.46934 12.6666 9.01109 12.9766 8.79647 13.4254C7.17545 13.6808 6 14.4384 6 15.3333C6 16.4379 7.79086 17.3333 10 17.3333C12.2091 17.3333 14 16.4379 14 15.3333C14 14.4384 12.8246 13.6808 11.2035 13.4254Z" fill="#1251A1"/>
    </g>
    </g>
</svg>
    