<svg width="20" height="20" viewBox="0 0 20 20" fill="none" xmlns="http://www.w3.org/2000/svg">
    <path d="M12.272 14.788L8.022 10.538C7.93456 10.4509 7.86533 10.3474 7.81793 10.2335C7.77063 10.1195 7.74634 9.99727 7.74634 9.87393C7.74634 9.7506 7.77063 9.62837 7.81793 9.51442C7.86533 9.40046 7.93456 9.29697 8.022 9.20988L12.272 4.95988C12.4481 4.78376 12.687 4.68481 12.9361 4.68481C13.1851 4.68481 13.424 4.78376 13.6001 4.95988C13.7763 5.136 13.8752 5.37487 13.8752 5.62394C13.8752 5.87301 13.7763 6.11188 13.6001 6.288L9.01339 9.87474L13.6009 13.4614C13.777 13.6376 13.876 13.8764 13.876 14.1255C13.876 14.3746 13.777 14.6134 13.6009 14.7896C13.4248 14.9657 13.1859 15.0646 12.9368 15.0646C12.6878 15.0646 12.4489 14.9657 12.2728 14.7896L12.272 14.788Z" fill="#525252"/>
</svg>
