<svg width="36" height="36" viewBox="0 0 36 36" fill="none" xmlns="http://www.w3.org/2000/svg">
    <path d="M20.272 24.788L14.022 18.538C13.9346 18.4509 13.8653 18.3474 13.8179 18.2335C13.7706 18.1195 13.7463 17.9973 13.7463 17.8739C13.7463 17.7506 13.7706 17.6284 13.8179 17.5144C13.8653 17.4005 13.9346 17.297 14.022 17.2099L20.272 10.9599C20.4481 10.7838 20.687 10.6848 20.9361 10.6848C21.1851 10.6848 21.424 10.7838 21.6001 10.9599C21.7763 11.136 21.8752 11.3749 21.8752 11.6239C21.8752 11.873 21.7763 12.1119 21.6001 12.288L16.0134 17.8747L21.6009 23.4614C21.777 23.6376 21.876 23.8764 21.876 24.1255C21.876 24.3746 21.777 24.6134 21.6009 24.7896C21.4248 24.9657 21.1859 25.0646 20.9368 25.0646C20.6878 25.0646 20.4489 24.9657 20.2728 24.7896L20.272 24.788Z" fill="#525252"/>
</svg>
