<svg width="20" height="20" viewBox="0 0 20 20" fill="none" xmlns="http://www.w3.org/2000/svg">
    <path d="M7.72799 3.212L13.978 9.462C14.0654 9.54909 14.1347 9.65259 14.1821 9.76654C14.2294 9.8805 14.2537 10.0027 14.2537 10.1261C14.2537 10.2494 14.2294 10.3716 14.1821 10.4856C14.1347 10.5995 14.0654 10.703 13.978 10.7901L7.72799 17.0401C7.55187 17.2162 7.313 17.3152 7.06393 17.3152C6.81486 17.3152 6.57599 17.2162 6.39987 17.0401C6.22375 16.864 6.1248 16.6251 6.1248 16.3761C6.1248 16.127 6.22375 15.8881 6.39987 15.712L11.9866 10.1253L6.39909 4.53856C6.22297 4.36244 6.12402 4.12357 6.12402 3.8745C6.12402 3.62543 6.22297 3.38656 6.39909 3.21043C6.57521 3.03431 6.81408 2.93537 7.06315 2.93537C7.31222 2.93537 7.55109 3.03431 7.72721 3.21043L7.72799 3.212Z" fill="#525252"/>
</svg>
